<?xml version="1.0" standalone="no"?>
<!DOCTYPE svg PUBLIC "-//W3C//DTD SVG 1.1//EN" "http://www.w3.org/Graphics/SVG/1.1/DTD/svg11.dtd" >
<svg xmlns="http://www.w3.org/2000/svg">
<metadata></metadata>
<defs>
<font id="rucksackdemi" horiz-adv-x="1251" >
<font-face units-per-em="2048" ascent="1434" descent="-614" />
<missing-glyph horiz-adv-x="430" />
<glyph horiz-adv-x="2048" />
<glyph horiz-adv-x="2048" />
<glyph unicode="&#xd;" horiz-adv-x="2048" />
<glyph unicode=" "  horiz-adv-x="430" />
<glyph unicode="&#x09;" horiz-adv-x="430" />
<glyph unicode="&#xa0;" horiz-adv-x="430" />
<glyph unicode="!" horiz-adv-x="657" d="M152 1384l354 -2l-53 -1032l-248 35zM184 117q0 62 41.5 102.5t102.5 40.5t104 -40.5t43 -102.5q0 -61 -43 -102.5t-104 -41.5q-60 0 -102 41.5t-42 102.5z" />
<glyph unicode="&#x22;" horiz-adv-x="778" d="M135 1495h197l-29 -414h-139zM446 1495h197l-29 -414h-139z" />
<glyph unicode="#" horiz-adv-x="1325" d="M98 371l35 137h191l88 336h-193l35 137h192l103 403h166l-105 -403h262l105 403h164l-105 -403h189l-37 -137h-187l-86 -336h187l-35 -137h-186l-97 -371h-163l94 371h-260l-97 -371h-165l96 371h-191zM489 508h263l86 336h-263z" />
<glyph unicode="$" horiz-adv-x="978" d="M76 1044q0 148 95.5 245.5t262.5 117.5l-2 129h133l4 -127q53 -4 104 -15.5t86 -24.5t63 -26t42 -21l13 -9v-244q-2 1 -27.5 16.5t-56.5 31t-73 32.5t-95 28t-105 11q-79 0 -124.5 -37t-45.5 -102q0 -52 31.5 -96.5t81.5 -78t111 -68t122 -76.5t111 -92t81.5 -126 t31.5 -168q0 -149 -94 -245.5t-259 -118.5l4 -130h-135l-4 125q-60 3 -113.5 14t-87.5 25t-60 28t-37 23l-11 9v243q2 -1 37 -23.5t71 -42t97.5 -37t120.5 -17.5q92 0 144 37t52 104q0 62 -31.5 113t-81.5 87.5t-111 71t-121.5 74t-110.5 86t-81.5 117t-31.5 157.5z" />
<glyph unicode="%" horiz-adv-x="1742" d="M53 1024q0 172 98 279.5t259 107.5t258.5 -107.5t97.5 -279.5t-97.5 -279.5t-258.5 -107.5t-259 107.5t-98 279.5zM229 1024q0 -105 50.5 -169t130.5 -64q79 0 128.5 64t49.5 169t-49.5 169t-128.5 64q-80 0 -130.5 -64t-50.5 -169zM422 -20l786 1425h129l-786 -1425 h-129zM995 360q0 172 98 280t259 108t258.5 -108t97.5 -280t-97.5 -279.5t-258.5 -107.5t-259 107.5t-98 279.5zM1171 360q0 -105 50.5 -169t130.5 -64q79 0 128.5 64t49.5 169t-49.5 169.5t-128.5 64.5q-80 0 -130.5 -64.5t-50.5 -169.5z" />
<glyph unicode="&#x26;" horiz-adv-x="1189" d="M104 377q0 111 58.5 196.5t159.5 128.5q-94 43 -146.5 124t-52.5 182q0 179 110.5 288t301.5 115v125h137v-131q75 -7 138.5 -24.5t89.5 -31.5l26 -14v-225q-14 8 -39.5 19t-110.5 30t-176 19q-94 0 -147.5 -48t-53.5 -133q0 -89 53.5 -140.5t145.5 -51.5h254v-217h-264 q-96 0 -149.5 -52t-53.5 -141q0 -91 61 -139.5t168 -48.5q88 0 172.5 19.5t125.5 39.5l40 19v-236q-11 -6 -32.5 -16.5t-94.5 -30t-153 -25.5v-127h-137v125q-203 12 -317 120.5t-114 281.5z" />
<glyph unicode="'" horiz-adv-x="464" d="M135 1495h197l-29 -414h-139z" />
<glyph unicode="(" horiz-adv-x="661" d="M76 561q0 267 63 470.5t178.5 315t266.5 111.5v-186q-123 0 -198 -195.5t-75 -515.5t75 -515.5t198 -195.5v-186q-151 0 -266.5 111.5t-178.5 315t-63 470.5z" />
<glyph unicode=")" horiz-adv-x="661" d="M76 -150q81 0 143 88.5t95.5 250t33.5 372.5t-33.5 372.5t-95.5 250t-143 88.5v186q151 0 266.5 -111.5t178.5 -315t63 -470.5t-63 -470.5t-178.5 -315t-266.5 -111.5v186z" />
<glyph unicode="*" horiz-adv-x="602" d="M104 1198v62h138l24 124h68l24 -124h138v-62l-107 -41l64 -113l-43 -49l-111 95l-109 -95l-43 49l64 113z" />
<glyph unicode="+" horiz-adv-x="950" d="M109 604v174h280v279h174v-279h279v-174h-279v-280h-174v280h-280z" />
<glyph unicode="," horiz-adv-x="456" d="M-14 -203l118 430h224l-160 -430h-182z" />
<glyph unicode="-" horiz-adv-x="811" d="M143 526v248h529v-248h-529z" />
<glyph unicode="." horiz-adv-x="577" d="M143 119q0 61 42 103t102 42q61 0 104 -42t43 -103q0 -60 -43.5 -103t-103.5 -43t-102 43t-42 103z" />
<glyph unicode="/" horiz-adv-x="854" d="M41 -203l559 1725h209l-559 -1725h-209z" />
<glyph unicode="0" horiz-adv-x="1257" d="M55 692q0 324 158 521.5t416 197.5q169 0 299 -89t201 -252.5t71 -377.5t-71 -377.5t-201 -252.5t-299 -89q-258 0 -416 197.5t-158 521.5zM334 692q0 -229 77.5 -356t217.5 -127q138 0 215.5 127.5t77.5 355.5q0 229 -77.5 356.5t-215.5 127.5q-139 0 -217 -127.5 t-78 -356.5z" />
<glyph unicode="1" horiz-adv-x="675" d="M47 1106v217l309 61h179v-1384h-269v1149z" />
<glyph unicode="2" horiz-adv-x="1028" d="M88 0v182q23 23 61.5 62t137 150t174 210t137 214.5t61.5 191.5q0 79 -48.5 123.5t-133.5 44.5q-57 0 -110.5 -9t-90 -21.5t-64.5 -25t-41 -21.5l-13 -9v233q5 3 14.5 9t43 21t72.5 26t103.5 20.5t134.5 9.5q191 0 298.5 -102t107.5 -283q0 -130 -127.5 -331t-353.5 -427 l-50 -35h541v-233h-854z" />
<glyph unicode="3" horiz-adv-x="1021" d="M111 49v236q17 -11 50.5 -26t112.5 -33.5t164 -18.5q110 0 172 49t62 141q0 89 -53.5 140t-149.5 51h-258v217h252q89 0 141.5 51.5t52.5 140.5q0 85 -54.5 133t-151.5 48q-172 0 -316 -72v229q146 76 361 76q203 0 316.5 -106.5t113.5 -296.5q0 -101 -57 -184.5 t-154 -121.5q109 -40 170 -126t61 -203q0 -188 -128.5 -294t-356.5 -106q-198 0 -350 76z" />
<glyph unicode="4" horiz-adv-x="1095" d="M49 258v170l526 956h349v-923h98v-203h-98v-258h-269v258h-606zM305 461h346l2 606z" />
<glyph unicode="5" horiz-adv-x="1046" d="M106 43v248q46 -33 140.5 -56.5t204.5 -23.5q116 0 181.5 57.5t65.5 159.5q0 101 -63.5 163t-169.5 62h-340l51 731h727v-231h-497l-21 -291h143q203 0 324 -118t121 -316q0 -212 -132 -333.5t-364 -121.5q-127 0 -228.5 21t-142.5 49z" />
<glyph unicode="6" horiz-adv-x="1144" d="M68 645q0 171 43.5 314t120.5 242.5t187 154.5t240 55q98 0 175.5 -17.5t105.5 -35.5l29 -17v-237q-13 8 -36.5 20.5t-94.5 33t-140 20.5q-164 0 -266 -124.5t-102 -330.5q4 7 12 19t37.5 42.5t64 53.5t92 42t121.5 19q186 0 301 -123t115 -325q0 -215 -133.5 -346.5 t-353.5 -131.5q-242 0 -380 179.5t-138 492.5zM338 498q0 -135 64.5 -219t187.5 -84q104 0 167.5 67t63.5 176t-57.5 174.5t-153.5 65.5q-59 0 -108.5 -18.5t-78 -45t-49.5 -53t-28 -45.5z" />
<glyph unicode="7" horiz-adv-x="980" d="M63 1157v227h861v-186q-9 -11 -24 -31t-58 -86.5t-82.5 -138.5t-87.5 -183t-82.5 -223t-58 -254t-23.5 -282h-303q0 272 103.5 568t289.5 554l35 35h-570z" />
<glyph unicode="8" horiz-adv-x="1155" d="M76 369q0 107 64.5 198t168.5 131q-92 37 -145 122.5t-53 199.5q0 175 127.5 283t336.5 108q210 0 338.5 -108t128.5 -283q0 -110 -52 -199.5t-138 -122.5q99 -44 161 -137t64 -199q-2 -175 -140 -282t-362 -107t-361.5 109t-137.5 287zM342 391q0 -92 65 -147.5 t171 -55.5t170.5 54t64.5 143q0 47 -23 85.5t-56.5 59.5t-66.5 35.5t-56 19.5l-23 5q-112 0 -179 -55t-67 -144zM371 1008q0 -50 21 -89t51 -59t60 -33t51 -17l21 -3q94 0 151.5 53t57.5 141t-57.5 141.5t-151.5 53.5q-92 0 -148 -51.5t-56 -136.5z" />
<glyph unicode="9" horiz-adv-x="1144" d="M68 934q0 215 133.5 346t351.5 131q243 0 381.5 -179t138.5 -493q0 -350 -159 -558t-425 -208q-102 0 -181 17.5t-108 35.5l-28 17v238q13 -8 36.5 -20.5t96 -33t144.5 -20.5q164 0 263 123.5t99 328.5q-4 -7 -12 -19t-38 -42t-65 -52.5t-93 -41.5t-122 -19 q-186 0 -299.5 123.5t-113.5 325.5zM317 946q0 -109 58 -174t153 -65q58 0 107.5 18.5t78.5 45t50 53t29 44.5l8 19q0 142 -66.5 222.5t-185.5 80.5q-104 0 -168 -67.5t-64 -176.5z" />
<glyph unicode=":" horiz-adv-x="550" d="M139 270q0 58 39 98t96 40q58 0 99 -40t41 -98q0 -57 -41.5 -97t-98.5 -40t-96 40t-39 97zM139 856q0 57 39 97t96 40t98.5 -40t41.5 -97t-41.5 -97t-98.5 -40t-96 40t-39 97z" />
<glyph unicode=";" horiz-adv-x="550" d="M49 -203l119 430h223l-160 -430h-182zM139 743q0 57 39 97.5t96 40.5t98.5 -40.5t41.5 -97.5t-41.5 -97t-98.5 -40t-96 40t-39 97z" />
<glyph unicode="&#x3c;" horiz-adv-x="628" d="M0 561l365 422l131 -121l-258 -301l258 -301l-131 -121z" />
<glyph unicode="=" horiz-adv-x="847" d="M117 432v174h614v-174h-614zM117 772v172h614v-172h-614z" />
<glyph unicode="&#x3e;" horiz-adv-x="628" d="M133 260l258 301l-258 301l131 121l365 -422l-365 -422z" />
<glyph unicode="?" horiz-adv-x="841" d="M119 1112v236q43 25 124.5 44t184.5 19q167 0 261.5 -92t94.5 -254q0 -78 -19.5 -143t-51.5 -112t-70 -89.5t-76 -83t-70 -84.5t-51.5 -104t-19.5 -130l-272 43q0 82 20 150.5t51.5 115.5t70 87.5t77 75.5t70 70t51.5 80t20 97q0 66 -43.5 103t-118.5 37 q-71 0 -135.5 -19.5t-97.5 -46.5zM143 117q0 62 41.5 102.5t102.5 40.5t104 -40.5t43 -102.5q0 -61 -43 -102.5t-104 -41.5q-60 0 -102 41.5t-42 102.5z" />
<glyph unicode="@" horiz-adv-x="1589" d="M74 692q0 324 204 521.5t537 197.5q315 0 508 -193t193 -509q0 -186 -82.5 -299t-223.5 -113q-71 0 -129.5 42.5t-83.5 111.5q-26 -69 -96.5 -111.5t-159.5 -42.5q-149 0 -237 107t-88 288q0 182 88 291t237 109q82 0 143 -34t81 -83l26 80h150v-510q0 -49 19.5 -85 t49.5 -36q56 0 89.5 81t33.5 204q0 255 -136.5 397.5t-381.5 142.5q-264 0 -411.5 -147t-147.5 -410q0 -253 147 -405t392 -152q223 0 358 82v-168q-63 -37 -161.5 -56.5t-196.5 -19.5q-324 0 -522.5 197.5t-198.5 521.5zM598 692q0 -113 50.5 -179.5t142.5 -66.5 q34 0 64 15t47.5 36t30.5 42t18 36l5 15v244q-2 5 -5.5 12.5t-17.5 27.5t-31 35.5t-47 28t-64 12.5q-93 0 -143 -69t-50 -189z" />
<glyph unicode="A" d="M35 0l440 1384h299l440 -1384h-282l-68 242h-477l-70 -242h-282zM446 451h359l-174 612l-6 39l-4 -39z" />
<glyph unicode="B" horiz-adv-x="1189" d="M139 0v1384h488q210 0 327 -94.5t117 -263.5q0 -117 -58 -201.5t-161 -113.5q132 -28 206.5 -116t74.5 -220q0 -177 -123.5 -276t-343.5 -99h-527zM408 223h247q96 0 150.5 45.5t54.5 128.5q0 93 -58 146t-157 53h-237v-373zM408 793h204q88 0 138.5 52t50.5 144 q0 79 -49 124.5t-134 45.5h-210v-366z" />
<glyph unicode="C" horiz-adv-x="1175" d="M76 692q0 214 84 377.5t237.5 252.5t354.5 89q96 0 173 -17.5t107 -35.5l29 -17v-233q-12 8 -33.5 19.5t-91 31t-141.5 19.5q-202 0 -320.5 -128t-118.5 -358t118.5 -357.5t320.5 -127.5q72 0 138.5 17t96.5 34l31 18v-233q-4 -3 -11.5 -7.5t-35.5 -16.5t-60.5 -21.5 t-87 -17t-114.5 -7.5q-201 0 -354.5 89t-237.5 252.5t-84 377.5z" />
<glyph unicode="D" horiz-adv-x="1292" d="M139 0v1384h416q108 0 207 -28.5t182 -86t144 -139.5t95 -194t34 -244t-34 -244t-95 -194t-144 -139.5t-182 -86t-207 -28.5h-416zM408 227h147q183 0 284 121t101 344t-101 344t-284 121h-147v-930z" />
<glyph unicode="E" horiz-adv-x="1091" d="M139 0v1384h834v-227h-565v-354h503v-211h-503v-365h571v-227h-840z" />
<glyph unicode="F" horiz-adv-x="950" d="M139 0v1384h756v-227h-487v-371h426v-211h-426v-575h-269z" />
<glyph unicode="G" d="M70 692q0 324 180 521.5t475 197.5q75 0 140 -7t104.5 -17.5t68.5 -21t40 -17.5l12 -7v-237q-15 8 -43 20.5t-111.5 33t-165.5 20.5q-197 0 -309.5 -127.5t-112.5 -358.5t101.5 -358t283.5 -127q73 0 162 24v295h-223v201h465v-670q-6 -3 -17 -9t-50.5 -20.5t-83.5 -25.5 t-115 -20t-146 -9q-305 0 -480 192.5t-175 526.5z" />
<glyph unicode="H" horiz-adv-x="1318" d="M139 0v1384h277v-610h487v610h275v-1384h-275v559h-487v-559h-277z" />
<glyph unicode="I" horiz-adv-x="577" d="M156 0v1384h268v-1384h-268z" />
<glyph unicode="J" horiz-adv-x="858" d="M121 37v248q9 -8 26 -20t67 -32t97 -20q71 0 109.5 48.5t38.5 137.5v985h270v-983q0 -207 -96.5 -317.5t-276.5 -110.5q-65 0 -124 16t-85 32z" />
<glyph unicode="K" horiz-adv-x="1269" d="M139 0v1384h269v-546l-13 -74l473 620h328l-565 -688l602 -696h-336l-502 612l13 -61v-551h-269z" />
<glyph unicode="L" horiz-adv-x="944" d="M156 0v1384h268v-1157h465v-227h-733z" />
<glyph unicode="M" horiz-adv-x="1734" d="M147 0l119 1384h297l322 -999l6 -55l6 55l324 999h301l118 -1384h-290l-43 909l12 86l-318 -995h-219l-317 995l12 -86l-43 -909h-287z" />
<glyph unicode="N" horiz-adv-x="1368" d="M139 0v1384h256l576 -948l-10 80v868h268v-1384h-256l-576 950l11 -82v-868h-269z" />
<glyph unicode="O" horiz-adv-x="1452" d="M76 692q0 328 180 523.5t469 195.5t469 -195.5t180 -523.5t-180 -523.5t-469 -195.5t-469 195.5t-180 523.5zM354 692q0 -222 102.5 -351.5t268.5 -129.5q167 0 269 129.5t102 351.5t-102 352t-269 130q-166 0 -268.5 -130t-102.5 -352z" />
<glyph unicode="P" horiz-adv-x="1146" d="M139 0v1384h408q261 0 405 -128t144 -361q0 -232 -142.5 -358.5t-402.5 -126.5h-143v-410h-269zM408 627h157q121 0 187.5 70t66.5 198q0 124 -66.5 193t-187.5 69h-157v-530z" />
<glyph unicode="Q" horiz-adv-x="1388" d="M63 692q0 336 169 527.5t462 191.5t462 -191.5t169 -527.5q0 -260 -104 -436t-293 -244l354 -229l-201 -199l-387 389q-293 0 -462 191.5t-169 527.5zM340 692q0 -223 97.5 -352t256.5 -129q161 0 259 129t98 352t-98.5 352.5t-258.5 129.5q-159 0 -256.5 -129.5 t-97.5 -352.5z" />
<glyph unicode="R" horiz-adv-x="1181" d="M139 0v1384h430q238 0 372 -114t134 -316q0 -148 -68.5 -249t-195.5 -146l37 -43l291 -516h-305l-256 522h-170v-522h-269zM401 715h160q113 0 176.5 59.5t63.5 165.5q0 101 -58 159t-159 58h-183v-442z" />
<glyph unicode="S" horiz-adv-x="970" d="M72 1051q0 164 120 262t322 98q104 0 200.5 -26t162.5 -72v-242q-77 55 -170.5 86t-178.5 31q-82 0 -128 -37t-46 -102q0 -46 24.5 -86.5t64 -70.5t90.5 -63.5t104 -63.5t104 -73t90.5 -90t64 -116t24.5 -150q0 -165 -119.5 -264t-317.5 -99q-114 0 -209.5 27t-152.5 74 v243q64 -57 149 -88.5t172 -31.5q94 0 145.5 37t51.5 104q0 62 -31.5 113.5t-81.5 89t-110 73t-120.5 76t-110.5 87.5t-81.5 117.5t-31.5 156.5z" />
<glyph unicode="T" horiz-adv-x="1052" d="M53 1157v227h944v-227h-335v-1157h-269v1157h-340z" />
<glyph unicode="U" horiz-adv-x="1271" d="M113 522v862h270v-884q0 -137 66.5 -213t187.5 -76q120 0 186 76t66 213v884h270v-862q0 -263 -136 -406t-386 -143q-251 0 -387.5 143.5t-136.5 405.5z" />
<glyph unicode="V" horiz-adv-x="1290" d="M35 1384h291l313 -1054l4 -43l6 43l314 1054h290l-483 -1384h-252z" />
<glyph unicode="W" horiz-adv-x="1804" d="M35 1384h287l188 -960l10 -57l8 57l254 960h238l254 -960l10 -57l8 57l189 960h286l-333 -1384h-271l-252 954l-10 50l-10 -50l-252 -954h-270z" />
<glyph unicode="X" horiz-adv-x="1196" d="M41 0l379 707l-367 677h305l228 -460l12 -58l12 58l224 460h309l-367 -677l379 -707h-311l-234 479l-12 58l-12 -58l-234 -479h-311z" />
<glyph unicode="Y" horiz-adv-x="1177" d="M-10 1384h313l277 -532l10 -47l10 47l277 532h313l-465 -817v-567h-270v569z" />
<glyph unicode="Z" horiz-adv-x="1032" d="M51 0l557 1100l35 57h-520v227h899l-565 -1116l-25 -41h551v-227h-932z" />
<glyph unicode="[" horiz-adv-x="647" d="M139 -371v1862h451v-211h-205v-1440h205v-211h-451z" />
<glyph unicode="\" horiz-adv-x="854" d="M41 1522h209l559 -1725h-209z" />
<glyph unicode="]" horiz-adv-x="647" d="M55 -160h205v1440h-205v211h451v-1862h-451v211z" />
<glyph unicode="^" horiz-adv-x="829" d="M66 1030l348 352l348 -352l-123 -121l-225 232l-226 -232z" />
<glyph unicode="_" horiz-adv-x="950" d="M117 0v174h717v-174h-717z" />
<glyph unicode="`" horiz-adv-x="438" d="M33 1542h258l119 -235h-164z" />
<glyph unicode="a" horiz-adv-x="1169" d="M76 340q0 170 110 268.5t285 98.5q60 0 112.5 -11t84.5 -27.5t55.5 -32.5t32.5 -27l10 -11v100q0 117 -72.5 179.5t-204.5 62.5q-82 0 -160.5 -22t-129.5 -60v225q57 32 150 51t194 19q229 0 360 -141.5t131 -388.5v-623h-223l-33 133q-3 -7 -10 -17.5t-33.5 -38 t-59 -48.5t-87.5 -38.5t-117 -17.5q-175 0 -285 98.5t-110 268.5zM352 342q0 -76 50.5 -123t132.5 -47q109 0 170 51.5t61 143.5v43q-2 4 -7.5 11t-25 25t-43.5 32t-65.5 25t-89.5 11q-82 0 -132.5 -47.5t-50.5 -124.5z" />
<glyph unicode="b" d="M139 0v1495h269v-377l-15 -127q4 7 12 17.5t37 38.5t63.5 49.5t92.5 39t123 17.5q217 0 336 -155t119 -435t-122.5 -435t-342.5 -155q-65 0 -121 16.5t-90.5 40t-59.5 47t-35 39.5l-10 17l-33 -133h-223zM408 350q3 -7 8 -17.5t25.5 -38t45.5 -48.5t68 -38.5t92 -17.5 q116 0 184 98.5t68 274.5t-68 274.5t-184 98.5q-49 0 -92 -17t-68.5 -41t-44.5 -48t-26 -41l-8 -17v-422z" />
<glyph unicode="c" horiz-adv-x="1017" d="M76 563q0 266 163 428t416 162q122 0 263 -49v-221q-117 55 -238 55q-152 0 -241 -102t-89 -273t89 -273t241 -102q119 0 238 56v-219q-137 -52 -263 -52q-253 0 -416 162t-163 428z" />
<glyph unicode="d" d="M76 563q0 280 118.5 435t333.5 155q65 0 123 -16.5t94 -40.5t62.5 -48t37.5 -40l11 -17l-12 127v377h268v-1495h-223l-33 133q-4 -6 -11.5 -16t-36.5 -36t-63 -45.5t-91.5 -35.5t-121.5 -16q-220 0 -338 149.5t-118 429.5zM352 563q0 -174 68 -267t184 -93q50 0 93 15 t69 36.5t44.5 43.5t25.5 37l8 15v422q-3 7 -8 18t-25.5 39t-45 50t-68 39.5t-93.5 17.5q-115 0 -183.5 -99t-68.5 -274z" />
<glyph unicode="e" horiz-adv-x="1155" d="M76 563q0 268 146 429t386 161q116 0 206.5 -35.5t145 -98.5t86.5 -149q31 -85 31 -183q0 -100 -22 -214h-707q6 -135 88 -211t223 -76q83 0 173.5 19.5t148.5 46.5v-213q-44 -26 -133 -46t-203 -20q-256 0 -412.5 162t-156.5 428zM346 641h490q10 44 10 82q0 80 -42 136 q-62 83 -190 83q-120 0 -194 -83t-74 -218z" />
<glyph unicode="f" horiz-adv-x="792" d="M41 938v188h162v68q0 150 94.5 239t253.5 89q103 0 174 -41v-201q-64 39 -135 39q-54 0 -85.5 -34t-31.5 -91v-68h236v-188h-236v-938h-270v938h-162z" />
<glyph unicode="g" horiz-adv-x="1236" d="M61 571q0 274 122.5 428t338.5 154q64 0 120 -16t91 -38.5t61 -45t37 -38.5l11 -16l32 127h224v-997q0 -261 -148.5 -392.5t-431.5 -131.5q-103 0 -190 19.5t-133 47.5v224q48 -33 133.5 -56.5t185.5 -23.5q154 0 234.5 60.5t80.5 176.5l23 115q-4 -7 -12 -18 t-37.5 -39.5t-64 -50.5t-91.5 -40t-121 -18q-221 0 -343 148t-122 421zM336 571q0 -171 68 -264.5t184 -93.5q47 0 88 13.5t67.5 32.5t46 40.5t28 36t9.5 20.5v424q-1 6 -9.5 22t-28 39.5t-46 45t-67.5 36.5t-88 15q-115 0 -183.5 -97.5t-68.5 -269.5z" />
<glyph unicode="h" horiz-adv-x="1191" d="M139 0v1495h269v-389l-13 -109q5 6 14.5 16.5t43 37.5t70 47.5t95.5 37.5t121 17q340 0 340 -389v-764h-268v760q0 85 -38.5 131.5t-110.5 46.5q-45 0 -88 -14t-72 -34t-51 -40.5t-33 -34.5l-10 -14v-801h-269z" />
<glyph unicode="i" horiz-adv-x="548" d="M125 1399q0 62 42.5 102.5t104.5 40.5q63 0 107.5 -40.5t44.5 -102.5q0 -63 -44.5 -104.5t-107.5 -41.5q-62 0 -104.5 41t-42.5 105zM139 0v1126h269v-1126h-269z" />
<glyph unicode="j" horiz-adv-x="544" d="M-139 -158q84 -30 139 -30q70 0 102.5 46t32.5 146v1122h271v-1126q0 -208 -94 -301.5t-289 -93.5q-78 0 -162 30v207zM121 1399q0 62 42.5 102.5t104.5 40.5q63 0 107.5 -40.5t44.5 -102.5q0 -63 -44.5 -104.5t-107.5 -41.5q-62 0 -104.5 41t-42.5 105z" />
<glyph unicode="k" horiz-adv-x="1210" d="M139 0v1495h269v-713l-11 -112l408 456h319l-491 -524l563 -602h-340l-461 508l13 -111v-397h-269z" />
<glyph unicode="l" horiz-adv-x="546" d="M139 0v1495h269v-1495h-269z" />
<glyph unicode="m" horiz-adv-x="1724" d="M139 0v1126h223l33 -131q4 6 12 17t36 38t60.5 48t85 38t109.5 17q208 0 279 -162q20 24 45 47t66 51.5t95.5 46t112.5 17.5q316 0 316 -371v-782h-269v774q0 76 -31 120t-89 44q-28 0 -55 -8t-47.5 -20t-39 -27t-31 -30t-22 -27.5t-14.5 -19.5l-4 -7v-799h-269v774 q0 76 -31 120t-89 44q-38 0 -74 -14t-60.5 -34t-43 -40.5t-27.5 -34.5l-8 -14v-801h-269z" />
<glyph unicode="n" horiz-adv-x="1214" d="M139 0v1126h219l37 -131q5 7 17 20t45 39t71.5 46.5t98 36.5t123.5 16q192 0 272 -95.5t80 -287.5v-770h-268v758q0 85 -40 132.5t-112 47.5q-49 0 -95.5 -14t-77 -34t-54 -40.5t-34.5 -34.5l-11 -14v-801h-271z" />
<glyph unicode="o" horiz-adv-x="1259" d="M76 561q0 268 151 430t402 162t402 -162t151 -430q0 -267 -151 -427.5t-402 -160.5t-402 160.5t-151 427.5zM346 561q0 -173 77.5 -273t205.5 -100q127 0 204.5 100t77.5 273q0 176 -77 276.5t-205 100.5t-205.5 -100.5t-77.5 -276.5z" />
<glyph unicode="p" d="M139 -369v1495h223l33 -131q4 6 11.5 17t36.5 38t63 48t91.5 38t121.5 17q219 0 338 -154.5t119 -435.5q0 -277 -128 -433.5t-346 -156.5q-64 0 -119 15.5t-88.5 37.5t-57.5 44t-34 38l-10 15l15 -127v-365h-269zM408 354q2 -7 6.5 -18t23 -39t41.5 -50t65 -39.5 t91 -17.5q118 0 191 99.5t73 273.5q0 176 -68 274.5t-184 98.5q-49 0 -92 -16.5t-68.5 -40t-44.5 -47t-26 -40.5l-8 -16v-422z" />
<glyph unicode="q" d="M76 563q0 281 118.5 435.5t337.5 154.5q64 0 121 -16.5t92.5 -39.5t62 -46t37.5 -39l11 -17l33 131h223v-1495h-268v365l12 127q-3 -6 -10 -16t-33 -36t-58 -46t-87 -36t-119 -16q-219 0 -346 156.5t-127 433.5zM352 563q0 -173 73.5 -273t190.5 -100q49 0 91 17t66 41 t41 48t24 41l6 17v422q-3 7 -8 17.5t-25.5 38t-45 48.5t-68 38.5t-93.5 17.5q-115 0 -183.5 -99t-68.5 -274z" />
<glyph unicode="r" horiz-adv-x="831" d="M139 0v1126h207l55 -145q2 4 6.5 10t20.5 24t35.5 34t52.5 36t70 34t89 24t109 10v-231q-138 0 -235.5 -50.5t-140.5 -144.5v-727h-269z" />
<glyph unicode="s" horiz-adv-x="923" d="M78 834q0 150 106.5 233.5t294.5 83.5q110 0 196 -26t138 -64v-221q-62 46 -141.5 77t-157.5 31q-76 0 -118 -30t-42 -84q0 -35 27.5 -66.5t71.5 -58.5t97 -55.5t106 -63.5t97 -75t71.5 -98t27.5 -126q0 -150 -107 -234t-294 -84q-111 0 -200 27t-134 63v224 q49 -44 132.5 -77.5t166.5 -33.5q75 0 117 30.5t42 84.5q0 41 -27.5 77.5t-71 64.5t-96.5 56.5t-106.5 61.5t-97 71t-71 92.5t-27.5 119.5z" />
<glyph unicode="t" horiz-adv-x="788" d="M41 938v188h162v213l268 45v-258h248v-188h-248v-938h-268v938h-162z" />
<glyph unicode="u" horiz-adv-x="1189" d="M113 356v770h268v-718q0 -215 168 -215q38 0 71 8t56 20t42 27.5t30.5 30.5t19.5 27t11 20l3 8v792h269v-1126h-224l-30 133q-3 -7 -9.5 -17.5t-33 -38t-59.5 -48.5t-92 -38.5t-128 -17.5q-178 0 -270 97.5t-92 285.5z" />
<glyph unicode="v" horiz-adv-x="1155" d="M35 1126h293l237 -802l10 -48l11 48l239 802h293l-397 -1126h-289z" />
<glyph unicode="w" horiz-adv-x="1712" d="M35 1126h297l162 -761l10 -52l10 52l236 761h213l233 -761l10 -52l11 52l161 761h297l-315 -1126h-275l-221 715l-8 57l-8 -57l-223 -715h-273z" />
<glyph unicode="x" horiz-adv-x="1097" d="M35 0l332 575l-299 551h294l175 -374l12 -50l12 50l174 374h295l-299 -553l332 -573h-297l-209 383l-8 45l-8 -45l-211 -383h-295z" />
<glyph unicode="y" horiz-adv-x="1196" d="M113 397v729h268v-712q0 -94 43 -146.5t119 -52.5q46 0 88 15t69.5 37t48 43.5t29.5 36.5l10 15v764h269v-997q0 -254 -139 -389t-398 -135q-101 0 -187 16.5t-136 40.5v219q51 -29 135 -49t184 -20q128 0 200 65t72 176l23 115q-5 -6 -14.5 -17t-41.5 -38t-67 -48 t-90.5 -38t-112.5 -17q-184 0 -278 101.5t-94 285.5z" />
<glyph unicode="z" horiz-adv-x="1026" d="M39 0l547 885l22 30h-502v211h881l-545 -886l-22 -31h522v-209h-903z" />
<glyph unicode="{" horiz-adv-x="575" d="M35 459v205q61 0 90 25.5t29 86.5v385q0 191 100 293t260 102v-170q-55 0 -88 -46.5t-33 -129.5v-438q0 -86 -39.5 -138t-93.5 -73q54 -21 93.5 -73t39.5 -138v-436q0 -84 33 -130t88 -46v-168q-160 0 -260 102t-100 293v381q0 61 -29 87t-90 26z" />
<glyph unicode="|" horiz-adv-x="391" d="M141 -82v1548h109v-1548h-109z" />
<glyph unicode="}" horiz-adv-x="575" d="M61 -262q55 0 88 46t33 130v436q0 86 39.5 138t93.5 73q-54 21 -93.5 73t-39.5 138v438q0 83 -33 129.5t-88 46.5v170q161 0 261 -102t100 -293v-385q0 -61 29 -86.5t90 -25.5v-205q-61 0 -90 -26t-29 -87v-381q0 -191 -100 -293t-261 -102v168z" />
<glyph unicode="&#xa1;" horiz-adv-x="657" d="M152 -162l53 1000l248 34l53 -1032zM184 1106q0 61 42 102t102 41q61 0 104 -41t43 -102q0 -62 -43 -102.5t-104 -40.5t-102.5 40.5t-41.5 102.5z" />
<glyph unicode="&#xa2;" horiz-adv-x="1026" d="M76 694q0 232 127 379t344 172v166h137v-164q62 -4 119 -17.5t83 -24.5l27 -11v-227q-12 6 -34 15.5t-84.5 25.5t-118.5 16q-157 0 -246.5 -88.5t-89.5 -241.5q0 -154 89 -243t247 -89q56 0 115.5 14t90.5 28l31 14v-228q-90 -43 -229 -53v-164h-137v166 q-217 25 -344 173.5t-127 381.5z" />
<glyph unicode="&#xa3;" horiz-adv-x="962" d="M0 557v139h164v222q0 224 117 358.5t323 134.5q149 0 252 -68v-229q-40 26 -99 45t-122 19q-98 0 -150.5 -57t-52.5 -158v-267h350v-139h-350v-104q0 -159 -63 -209l-47 -17h585v-227h-889v227q68 0 107 60.5t39 165.5v104h-164z" />
<glyph unicode="&#xa5;" horiz-adv-x="1234" d="M25 1384h313l276 -532l11 -49l10 49l276 532h314l-447 -782h217v-129h-235v-102h235v-129h-235v-242h-271v242h-233v129h233v102h-233v129h215z" />
<glyph unicode="&#xa6;" horiz-adv-x="403" d="M147 -82v698h109v-698h-109zM147 754v712h109v-712h-109z" />
<glyph unicode="&#xa7;" horiz-adv-x="1052" d="M92 559q0 143 131 264q-62 46 -90.5 104.5t-28.5 139.5q0 162 120 253t335 91q38 0 75 -3.5t68 -10t58 -13.5t50 -15.5t38 -14.5t28.5 -12t14.5 -7v-239q-19 10 -51 25.5t-118 41.5t-157 27q-86 0 -136 -34.5t-50 -94.5q0 -26 14 -49.5t34.5 -41t63 -38.5t78 -36 t101.5 -40q140 -55 217.5 -134.5t77.5 -203.5q0 -142 -134 -262q63 -47 92 -105.5t29 -140.5q0 -162 -119 -253t-337 -91q-43 0 -86.5 5t-75 12t-64 17.5t-49.5 17t-36.5 15.5t-20.5 9v240q7 -4 19.5 -10t50.5 -22.5t75.5 -29t89 -22.5t95.5 -11q85 0 134.5 34t49.5 95 q0 33 -19 60t-60 51.5t-88 45.5t-120 50q-5 2 -8.5 3.5t-7.5 2.5q-134 52 -208.5 130.5t-74.5 199.5zM342 578q2 -49 34 -88t95 -62l170 -63q72 68 72 135q-3 105 -138 153l-161 60q-72 -65 -72 -135z" />
<glyph unicode="&#xa8;" horiz-adv-x="878" d="M115 1395q0 46 31.5 78t86.5 32q54 0 85.5 -32t31.5 -78q0 -48 -31.5 -80.5t-85.5 -32.5q-55 0 -86.5 32.5t-31.5 80.5zM528 1395q0 46 32 78t87 32q54 0 85.5 -32t31.5 -78q0 -48 -31.5 -80.5t-85.5 -32.5q-55 0 -87 32.5t-32 80.5z" />
<glyph unicode="&#xab;" horiz-adv-x="1107" d="M0 563l365 422l147 -151l-227 -271l227 -272l-147 -150zM479 563l365 422l147 -151l-227 -271l227 -272l-147 -150z" />
<glyph unicode="&#xad;" horiz-adv-x="811" d="M143 526v248h529v-248h-529z" />
<glyph unicode="&#xaf;" horiz-adv-x="1128" d="M207 1329v125h680v-125h-680z" />
<glyph unicode="&#xb0;" horiz-adv-x="653" d="M117 1212q0 89 57.5 144t151.5 55q95 0 153 -55t58 -144t-58 -142.5t-153 -53.5q-94 0 -151.5 53.5t-57.5 142.5zM231 1212q0 -39 26.5 -63.5t68.5 -24.5q43 0 69.5 24t26.5 64t-26.5 65.5t-69.5 25.5q-41 0 -68 -25.5t-27 -65.5z" />
<glyph unicode="&#xb1;" horiz-adv-x="1228" d="M205 281v149h682v-149h-682zM205 702v150h268v211h150v-211h264v-150h-264v-170h-150v170h-268z" />
<glyph unicode="&#xb2;" horiz-adv-x="663" d="M55 504v117q15 15 39 40t86.5 96t110 134.5t86.5 138t39 123.5q0 51 -31 80t-86 29q-57 0 -107 -14.5t-71 -29.5l-21 -14v152q9 6 26 15t78 24.5t132 15.5q121 0 187.5 -67t66.5 -181q0 -93 -82 -220.5t-219 -264.5l-31 -21h340v-153h-543z" />
<glyph unicode="&#xb3;" horiz-adv-x="614" d="M47 537v151q10 -5 27.5 -13.5t74 -22t113.5 -13.5q68 0 107 31.5t39 89.5t-35 89.5t-97 31.5h-165v139h163q57 0 91 33t34 90q0 55 -35 86t-94 31q-57 0 -109.5 -11.5t-76.5 -22.5l-23 -12v150q10 5 28.5 13t80.5 21t129 13q127 0 198.5 -69.5t71.5 -188.5 q0 -65 -33 -117t-92 -80q64 -28 101 -82.5t37 -123.5q0 -120 -80.5 -190.5t-227.5 -70.5q-64 0 -120.5 12t-81.5 24z" />
<glyph unicode="&#xb4;" horiz-adv-x="438" d="M27 1307l116 235h260l-213 -235h-163z" />
<glyph unicode="&#xb5;" horiz-adv-x="1183" d="M111 -369v1495h268v-718q0 -215 168 -215q38 0 71 8t56 20t42 27.5t30.5 30.5t19.5 27t11 20l3 8v792h269v-1126h-224l-30 127q-50 -74 -131 -114t-181 -40q-77 0 -135 27l23 -84v-285h-260z" />
<glyph unicode="&#xb6;" horiz-adv-x="1073" d="M74 1018q1 96 30.5 168t81.5 113.5t116 62t140 20.5h535v-149h-121v-1473h-149v1473h-111v-1473h-150v895q-77 0 -142.5 20.5t-118 63t-82 114t-29.5 165.5z" />
<glyph unicode="&#xb7;" horiz-adv-x="552" d="M139 559q0 58 39 97.5t96 39.5q58 0 99 -39.5t41 -97.5q0 -57 -41.5 -97t-98.5 -40t-96 40t-39 97z" />
<glyph unicode="&#xb8;" horiz-adv-x="342" d="M0 -317l29 104q51 -23 110 -23q28 0 47 14t19 36q0 41 -45 41h-115l39 145h117l-15 -51q70 0 110 -36t40 -99q0 -77 -50 -119.5t-141 -42.5q-44 0 -80.5 8t-50.5 16z" />
<glyph unicode="&#xb9;" horiz-adv-x="481" d="M86 1204v150l190 37h132v-891h-183v731z" />
<glyph unicode="&#xbb;" horiz-adv-x="1107" d="M117 289l227 272l-227 273l147 149l365 -422l-365 -422zM596 289l227 272l-227 273l147 149l365 -422l-365 -422z" />
<glyph unicode="&#xbc;" horiz-adv-x="1568" d="M86 1212v146l190 37h132v-891h-183v737zM307 -20l787 1425h129l-787 -1425h-129zM903 164v104l332 623h231v-602h64v-125h-64v-164h-176v164h-387zM1065 285h225v395z" />
<glyph unicode="&#xbd;" horiz-adv-x="1667" d="M86 1212v146l190 37h132v-891h-183v737zM307 -20l787 1425h129l-787 -1425h-129zM1059 0v117q15 15 39 40t86 96t109.5 134.5t86.5 138t39 123.5q0 51 -30.5 80t-85.5 29q-57 0 -107 -14.5t-71 -29.5l-21 -14v152q8 6 25 15t78 24.5t132 15.5q121 0 187.5 -67t66.5 -181 q0 -93 -82 -220.5t-219 -264.5l-30 -20h340v-154h-543z" />
<glyph unicode="&#xbe;" horiz-adv-x="1624" d="M47 537q9 -5 27 -13t77 -21.5t123 -13.5q147 0 227.5 70.5t80.5 190.5q0 69 -37 123.5t-101 82.5q59 28 92 80t33 117q0 119 -71.5 188.5t-198.5 69.5q-67 0 -126.5 -11.5t-85.5 -23.5l-26 -12v-150q9 5 26 12.5t71.5 20.5t111.5 13q59 0 94 -31t35 -86q0 -57 -34 -90 t-91 -33h-163v-139h165q62 0 97 -31.5t35 -89.5t-39 -89.5t-107 -31.5q-57 0 -111 12.5t-79 24.5l-25 12v-151zM362 -20l787 1425h129l-786 -1425h-130zM958 164v104l332 623h232v-602h63v-125h-63v-164h-176v164h-388zM1120 285h226v395z" />
<glyph unicode="&#xbf;" horiz-adv-x="841" d="M55 158q0 78 20 143t51.5 112t69.5 89t76.5 83t70 84.5t51.5 103.5t20 130l274 -41q0 -82 -20 -151t-51.5 -116.5t-70 -88t-77 -75.5t-70 -70t-51.5 -80t-20 -97q0 -66 42 -102.5t117 -36.5q71 0 136 19.5t98 46.5v-236q-40 -25 -122.5 -44t-184.5 -19q-167 0 -263 92.5 t-96 253.5zM408 1106q0 61 43 102t104 41q60 0 101.5 -41t41.5 -102q0 -62 -41 -102.5t-102 -40.5t-104 40.5t-43 102.5z" />
<glyph unicode="&#xc0;" d="M35 0l440 1384h299l440 -1384h-282l-68 242h-477l-70 -242h-282zM328 1733h258l119 -236h-164zM446 451h359l-174 612l-6 39l-4 -39z" />
<glyph unicode="&#xc1;" d="M35 0l440 1384h299l440 -1384h-282l-68 242h-477l-70 -242h-282zM446 451h359l-174 612l-6 39l-4 -39zM530 1497l117 236h260l-213 -236h-164z" />
<glyph unicode="&#xc2;" d="M35 0l440 1384h299l440 -1384h-282l-68 242h-477l-70 -242h-282zM338 1495l172 242h229l172 -242h-174l-112 119l-113 -119h-174zM446 451h359l-174 612l-6 39l-4 -39z" />
<glyph unicode="&#xc3;" d="M35 0l440 1384h299l440 -1384h-282l-68 242h-477l-70 -242h-282zM334 1573q27 76 74 122t112 46q40 0 83 -22t78 -44t56 -22q29 0 44.5 18.5t27.5 54.5l109 -49q-26 -75 -74.5 -121.5t-114.5 -46.5q-40 0 -83 22t-77.5 44t-54.5 22q-29 0 -44.5 -18.5t-27.5 -54.5z M446 451h359l-174 612l-6 39l-4 -39z" />
<glyph unicode="&#xc4;" d="M35 0l440 1384h299l440 -1384h-282l-68 242h-477l-70 -242h-282zM295 1628q0 48 32 79.5t87 31.5q54 0 85 -31.5t31 -79.5q0 -47 -31 -78.5t-85 -31.5q-55 0 -87 31.5t-32 78.5zM446 451h359l-174 612l-6 39l-4 -39zM719 1628q0 48 32 79.5t87 31.5q54 0 85 -31.5 t31 -79.5q0 -47 -31 -78.5t-85 -31.5q-55 0 -87 31.5t-32 78.5z" />
<glyph unicode="&#xc5;" d="M35 0l440 1384h299l440 -1384h-282l-68 242h-477l-70 -242h-282zM434 1628q0 78 53 129t138 51q84 0 137 -51.5t53 -128.5t-53 -127.5t-137 -50.5q-85 0 -138 50.5t-53 127.5zM446 451h359l-174 612l-6 39l-4 -39zM539 1628q0 -36 24.5 -59t61.5 -23t60.5 22.5t23.5 59.5 q0 38 -23.5 62t-60.5 24t-61.5 -24t-24.5 -62z" />
<glyph unicode="&#xc6;" horiz-adv-x="1677" d="M37 0l545 1384h981v-227h-553v-354h491v-213h-491v-363h559v-227h-828v242h-327l-90 -242h-287zM483 449h260v718l-8 -47z" />
<glyph unicode="&#xc7;" horiz-adv-x="1175" d="M76 692q0 214 84 377.5t237.5 252.5t354.5 89q96 0 173 -17.5t107 -35.5l29 -17v-233q-12 8 -33.5 19.5t-91 31t-141.5 19.5q-202 0 -320.5 -128t-118.5 -358t118.5 -357.5t320.5 -127.5q72 0 138.5 17t96.5 34l31 18v-233q-4 -3 -11.5 -7.5t-35.5 -16.5t-60.5 -21.5 t-87 -17t-114.5 -7.5l-7 -24q70 0 110 -36t40 -99q0 -77 -49.5 -119.5t-140.5 -42.5q-44 0 -80.5 8t-50.5 16l-15 7l29 104q51 -23 110 -23q28 0 47 14t19 36q0 41 -45 41h-115l35 127q-258 37 -410.5 227.5t-152.5 482.5z" />
<glyph unicode="&#xc8;" horiz-adv-x="1091" d="M139 0v1384h834v-227h-565v-354h503v-211h-503v-365h571v-227h-840zM236 1733h258l118 -236h-163z" />
<glyph unicode="&#xc9;" horiz-adv-x="1091" d="M139 0v1384h834v-227h-565v-354h503v-211h-503v-365h571v-227h-840zM438 1497l117 236h260l-213 -236h-164z" />
<glyph unicode="&#xca;" horiz-adv-x="1091" d="M139 0v1384h834v-227h-565v-354h503v-211h-503v-365h571v-227h-840zM246 1495l172 242h229l172 -242h-174l-113 119l-112 -119h-174z" />
<glyph unicode="&#xcb;" horiz-adv-x="1091" d="M139 0v1384h834v-227h-565v-354h503v-211h-503v-365h571v-227h-840zM203 1628q0 48 32 79.5t87 31.5q54 0 85 -31.5t31 -79.5q0 -47 -31 -78.5t-85 -31.5q-55 0 -87 31.5t-32 78.5zM627 1628q0 48 31.5 79.5t86.5 31.5q54 0 85.5 -32t31.5 -79t-31.5 -78.5t-85.5 -31.5 q-55 0 -86.5 31t-31.5 79z" />
<glyph unicode="&#xcc;" horiz-adv-x="577" d="M-6 1733h258l119 -236h-164zM156 0v1384h268v-1384h-268z" />
<glyph unicode="&#xcd;" horiz-adv-x="577" d="M156 0v1384h268v-1384h-268zM197 1497l116 236h260l-213 -236h-163z" />
<glyph unicode="&#xce;" horiz-adv-x="577" d="M4 1495l172 242h230l172 -242h-175l-112 119l-113 -119h-174zM156 0v1384h268v-1384h-268z" />
<glyph unicode="&#xcf;" horiz-adv-x="577" d="M-39 1628q0 48 32 79.5t87 31.5q54 0 85.5 -32t31.5 -79t-31.5 -78.5t-85.5 -31.5q-55 0 -87 31.5t-32 78.5zM156 0v1384h268v-1384h-268zM385 1628q0 48 32 79.5t87 31.5q54 0 85.5 -32t31.5 -79t-31.5 -78.5t-85.5 -31.5q-55 0 -87 31.5t-32 78.5z" />
<glyph unicode="&#xd0;" horiz-adv-x="1296" d="M0 598v168h143v618h416q108 0 207 -28.5t182 -86t144 -139.5t95 -194t34 -244t-34 -244t-95 -194t-144 -139.5t-182 -86t-207 -28.5h-416v598h-143zM412 227h147q183 0 284 121t101 344t-101 344t-284 121h-147v-391h190v-168h-190v-371z" />
<glyph unicode="&#xd1;" horiz-adv-x="1368" d="M139 0v1384h256l576 -948l-10 80v868h268v-1384h-256l-576 950l11 -82v-868h-269zM348 1573q27 76 74.5 122t112.5 46q40 0 83 -22t78 -44t56 -22q28 0 43.5 18t27.5 55l109 -49q-26 -75 -74.5 -121.5t-114.5 -46.5q-40 0 -83 22t-77.5 44t-54.5 22q-28 0 -43.5 -18 t-27.5 -55z" />
<glyph unicode="&#xd2;" horiz-adv-x="1452" d="M76 692q0 328 180 523.5t469 195.5t469 -195.5t180 -523.5t-180 -523.5t-469 -195.5t-469 195.5t-180 523.5zM354 692q0 -222 102.5 -351.5t268.5 -129.5q167 0 269 129.5t102 351.5t-102 352t-269 130q-166 0 -268.5 -130t-102.5 -352zM428 1733h258l119 -236h-164z" />
<glyph unicode="&#xd3;" horiz-adv-x="1452" d="M76 692q0 328 180 523.5t469 195.5t469 -195.5t180 -523.5t-180 -523.5t-469 -195.5t-469 195.5t-180 523.5zM354 692q0 -222 102.5 -351.5t268.5 -129.5q167 0 269 129.5t102 351.5t-102 352t-269 130q-166 0 -268.5 -130t-102.5 -352zM631 1497l117 236h260l-213 -236 h-164z" />
<glyph unicode="&#xd4;" horiz-adv-x="1452" d="M76 692q0 328 180 523.5t469 195.5t469 -195.5t180 -523.5t-180 -523.5t-469 -195.5t-469 195.5t-180 523.5zM354 692q0 -222 102.5 -351.5t268.5 -129.5q167 0 269 129.5t102 351.5t-102 352t-269 130q-166 0 -268.5 -130t-102.5 -352zM438 1495l172 242h230l172 -242 h-174l-113 119l-113 -119h-174z" />
<glyph unicode="&#xd5;" horiz-adv-x="1452" d="M76 692q0 328 180 523.5t469 195.5t469 -195.5t180 -523.5t-180 -523.5t-469 -195.5t-469 195.5t-180 523.5zM354 692q0 -222 102.5 -351.5t268.5 -129.5q167 0 269 129.5t102 351.5t-102 352t-269 130q-166 0 -268.5 -130t-102.5 -352zM434 1573q27 76 74.5 122 t112.5 46q40 0 83 -22t78 -44t56 -22q28 0 43.5 18t27.5 55l109 -49q-26 -75 -74.5 -121.5t-114.5 -46.5q-40 0 -83 22t-77.5 44t-54.5 22q-28 0 -43.5 -18t-27.5 -55z" />
<glyph unicode="&#xd6;" horiz-adv-x="1452" d="M76 692q0 328 180 523.5t469 195.5t469 -195.5t180 -523.5t-180 -523.5t-469 -195.5t-469 195.5t-180 523.5zM354 692q0 -222 102.5 -351.5t268.5 -129.5q167 0 269 129.5t102 351.5t-102 352t-269 130q-166 0 -268.5 -130t-102.5 -352zM395 1628q0 48 32 79.5t87 31.5 q54 0 85.5 -32t31.5 -79t-31.5 -78.5t-85.5 -31.5q-55 0 -87 31.5t-32 78.5zM819 1628q0 48 32 79.5t87 31.5q54 0 85.5 -32t31.5 -79t-31.5 -78.5t-85.5 -31.5q-55 0 -87 31.5t-32 78.5z" />
<glyph unicode="&#xd7;" horiz-adv-x="903" d="M117 506l184 184l-184 184l149 150l185 -184l184 184l151 -150l-186 -184l186 -184l-151 -150l-184 185l-185 -185z" />
<glyph unicode="&#xd8;" horiz-adv-x="1421" d="M76 692q0 328 180 523.5t469 195.5t469 -195.5t180 -523.5t-180 -523.5t-469 -195.5t-469 195.5t-180 523.5zM354 692q0 -147 49 -264l568 569l33 -30l-578 -576l-6 6q50 -90 128 -138t177 -48q167 0 269 129.5t102 351.5t-102 352t-269 130q-166 0 -268.5 -130 t-102.5 -352z" />
<glyph unicode="&#xd9;" horiz-adv-x="1271" d="M113 522v862h270v-884q0 -137 66.5 -213t187.5 -76q120 0 186 76t66 213v884h270v-862q0 -263 -136 -406t-386 -143q-251 0 -387.5 143.5t-136.5 405.5zM340 1733h258l119 -236h-164z" />
<glyph unicode="&#xda;" horiz-adv-x="1271" d="M113 522v862h270v-884q0 -137 66.5 -213t187.5 -76q120 0 186 76t66 213v884h270v-862q0 -263 -136 -406t-386 -143q-251 0 -387.5 143.5t-136.5 405.5zM543 1497l116 236h261l-213 -236h-164z" />
<glyph unicode="&#xdb;" horiz-adv-x="1271" d="M113 522v862h270v-884q0 -137 66.5 -213t187.5 -76q120 0 186 76t66 213v884h270v-862q0 -263 -136 -406t-386 -143q-251 0 -387.5 143.5t-136.5 405.5zM350 1495l172 242h230l172 -242h-174l-113 119l-113 -119h-174z" />
<glyph unicode="&#xdc;" horiz-adv-x="1271" d="M113 522v862h270v-884q0 -137 66.5 -213t187.5 -76q120 0 186 76t66 213v884h270v-862q0 -263 -136 -406t-386 -143q-251 0 -387.5 143.5t-136.5 405.5zM307 1628q0 48 32 79.5t87 31.5q54 0 85.5 -32t31.5 -79t-31.5 -78.5t-85.5 -31.5q-55 0 -87 31.5t-32 78.5z M731 1628q0 48 32 79.5t87 31.5q54 0 85.5 -32t31.5 -79t-31.5 -78.5t-85.5 -31.5q-55 0 -87 31.5t-32 78.5z" />
<glyph unicode="&#xdd;" horiz-adv-x="1177" d="M-10 1384h313l277 -532l10 -47l10 47l277 532h313l-465 -817v-567h-270v569zM496 1497l116 236h260l-213 -236h-163z" />
<glyph unicode="&#xde;" horiz-adv-x="1138" d="M135 0v1384h268v-217h140q254 0 401.5 -127t147.5 -362t-148 -361.5t-401 -126.5h-140v-190h-268zM403 410h156q120 0 188 70.5t68 197.5q0 123 -68 191.5t-188 68.5h-156v-528z" />
<glyph unicode="&#xdf;" horiz-adv-x="1171" d="M156 0v1026q0 200 110 313t312 113q189 0 298 -98t109 -267q0 -78 -26 -151.5t-52 -129t-26 -89.5q0 -26 24 -60.5t57.5 -72t67.5 -80t58 -98.5t24 -115q0 -151 -88.5 -234.5t-247.5 -83.5q-63 0 -120.5 12t-83.5 23l-27 12v230q8 -5 22 -12.5t57 -20t85 -12.5 q59 0 94 34.5t35 96.5q0 42 -21.5 81.5t-52 71t-60.5 64t-51.5 75t-21.5 89.5q0 63 47 174t47 170q0 73 -41.5 116.5t-112.5 43.5q-69 0 -109 -47t-40 -127v-1047h-266z" />
<glyph unicode="&#xe0;" horiz-adv-x="1169" d="M76 340q0 170 110 268.5t285 98.5q60 0 112.5 -11t84.5 -27.5t55.5 -32.5t32.5 -27l10 -11v100q0 117 -72.5 179.5t-204.5 62.5q-82 0 -160.5 -22t-129.5 -60v225q57 32 150 51t194 19q229 0 360 -141.5t131 -388.5v-623h-223l-33 133q-3 -7 -10 -17.5t-33.5 -38 t-59 -48.5t-87.5 -38.5t-117 -17.5q-175 0 -285 98.5t-110 268.5zM305 1542h258l119 -235h-164zM352 342q0 -76 50.5 -123t132.5 -47q109 0 170 51.5t61 143.5v43q-2 4 -7.5 11t-25 25t-43.5 32t-65.5 25t-89.5 11q-82 0 -132.5 -47.5t-50.5 -124.5z" />
<glyph unicode="&#xe1;" horiz-adv-x="1169" d="M76 340q0 170 110 268.5t285 98.5q60 0 112.5 -11t84.5 -27.5t55.5 -32.5t32.5 -27l10 -11v100q0 117 -72.5 179.5t-204.5 62.5q-82 0 -160.5 -22t-129.5 -60v225q57 32 150 51t194 19q229 0 360 -141.5t131 -388.5v-623h-223l-33 133q-3 -7 -10 -17.5t-33.5 -38 t-59 -48.5t-87.5 -38.5t-117 -17.5q-175 0 -285 98.5t-110 268.5zM352 342q0 -76 50.5 -123t132.5 -47q109 0 170 51.5t61 143.5v43q-2 4 -7.5 11t-25 25t-43.5 32t-65.5 25t-89.5 11q-82 0 -132.5 -47.5t-50.5 -124.5zM467 1307l117 235h260l-213 -235h-164z" />
<glyph unicode="&#xe2;" horiz-adv-x="1169" d="M76 340q0 170 110 268.5t285 98.5q60 0 112.5 -11t84.5 -27.5t55.5 -32.5t32.5 -27l10 -11v100q0 117 -72.5 179.5t-204.5 62.5q-82 0 -160.5 -22t-129.5 -60v225q57 32 150 51t194 19q229 0 360 -141.5t131 -388.5v-623h-223l-33 133q-3 -7 -10 -17.5t-33.5 -38 t-59 -48.5t-87.5 -38.5t-117 -17.5q-175 0 -285 98.5t-110 268.5zM313 1298l172 242h230l172 -242h-174l-113 119l-113 -119h-174zM352 342q0 -76 50.5 -123t132.5 -47q109 0 170 51.5t61 143.5v43q-2 4 -7.5 11t-25 25t-43.5 32t-65.5 25t-89.5 11q-82 0 -132.5 -47.5 t-50.5 -124.5z" />
<glyph unicode="&#xe3;" horiz-adv-x="1169" d="M76 340q0 170 110 268.5t285 98.5q60 0 112.5 -11t84.5 -27.5t55.5 -32.5t32.5 -27l10 -11v100q0 117 -72.5 179.5t-204.5 62.5q-82 0 -160.5 -22t-129.5 -60v225q57 32 150 51t194 19q229 0 360 -141.5t131 -388.5v-623h-223l-33 133q-3 -7 -10 -17.5t-33.5 -38 t-59 -48.5t-87.5 -38.5t-117 -17.5q-175 0 -285 98.5t-110 268.5zM324 1343q9 25 11.5 32t11.5 30t14.5 31t16.5 25.5t21.5 24t25.5 16t33.5 13t39.5 3.5q40 0 83 -22t77.5 -44t54.5 -22q28 0 43.5 18t27.5 55l95 -43q-30 -88 -52 -117q-43 -56 -120 -57q-40 0 -83 22 t-77.5 44t-54.5 22q-29 0 -45.5 -19t-28.5 -55zM352 342q0 -76 50.5 -123t132.5 -47q109 0 170 51.5t61 143.5v43q-2 4 -7.5 11t-25 25t-43.5 32t-65.5 25t-89.5 11q-82 0 -132.5 -47.5t-50.5 -124.5z" />
<glyph unicode="&#xe4;" horiz-adv-x="1169" d="M76 340q0 170 110 268.5t285 98.5q60 0 112.5 -11t84.5 -27.5t55.5 -32.5t32.5 -27l10 -11v100q0 117 -72.5 179.5t-204.5 62.5q-82 0 -160.5 -22t-129.5 -60v225q57 32 150 51t194 19q229 0 360 -141.5t131 -388.5v-623h-223l-33 133q-3 -7 -10 -17.5t-33.5 -38 t-59 -48.5t-87.5 -38.5t-117 -17.5q-175 0 -285 98.5t-110 268.5zM274 1395q0 46 32 78t87 32q54 0 85.5 -32t31.5 -78q0 -48 -31.5 -80.5t-85.5 -32.5q-55 0 -87 32.5t-32 80.5zM352 342q0 -76 50.5 -123t132.5 -47q109 0 170 51.5t61 143.5v43q-2 4 -7.5 11t-25 25 t-43.5 32t-65.5 25t-89.5 11q-82 0 -132.5 -47.5t-50.5 -124.5zM688 1395q0 46 32 78t87 32q54 0 85.5 -32t31.5 -78q0 -48 -31.5 -80.5t-85.5 -32.5q-55 0 -87 32.5t-32 80.5z" />
<glyph unicode="&#xe5;" horiz-adv-x="1169" d="M76 340q0 170 110 268.5t285 98.5q60 0 112.5 -11t84.5 -27.5t55.5 -32.5t32.5 -27l10 -11v100q0 117 -72.5 179.5t-204.5 62.5q-82 0 -160.5 -22t-129.5 -60v225q57 32 150 51t194 19q229 0 360 -141.5t131 -388.5v-623h-223l-33 133q-3 -7 -10 -17.5t-33.5 -38 t-59 -48.5t-87.5 -38.5t-117 -17.5q-175 0 -285 98.5t-110 268.5zM352 342q0 -76 50.5 -123t132.5 -47q109 0 170 51.5t61 143.5v43q-2 4 -7.5 11t-25 25t-43.5 32t-65.5 25t-89.5 11q-82 0 -132.5 -47.5t-50.5 -124.5zM410 1395q0 78 52.5 129t137.5 51q84 0 137.5 -51.5 t53.5 -128.5t-53.5 -127.5t-137.5 -50.5q-85 0 -137.5 50t-52.5 128zM514 1395q0 -36 24.5 -59t61.5 -23t60.5 22.5t23.5 59.5q0 38 -23.5 61t-60.5 23t-61.5 -23t-24.5 -61z" />
<glyph unicode="&#xe6;" horiz-adv-x="1792" d="M61 313q0 160 106 250t275 90h297v45q0 117 -71.5 179.5t-202.5 62.5q-171 0 -293 -82v225q118 70 344 70q249 0 375 -160q141 160 379 160q269 0 389 -183.5t57 -496.5h-706q10 -138 93 -212.5t218 -74.5q157 0 321 66v-213q-122 -66 -335 -66q-251 0 -406 158 q-66 -76 -175.5 -117t-236.5 -41q-197 0 -312.5 90t-115.5 250zM328 324q0 -70 47 -109t129 -39q110 0 171.5 58t61.5 161v78h-239q-80 0 -124 -40t-46 -109zM1006 637h489q29 136 -33 218.5t-190 82.5q-119 0 -192.5 -83t-73.5 -218z" />
<glyph unicode="&#xe7;" horiz-adv-x="1017" d="M76 563q0 266 163 428t416 162q122 0 263 -49v-221q-117 55 -238 55q-152 0 -241 -102t-89 -273t89 -273t241 -102q119 0 238 56v-219q-137 -52 -263 -52h-26l-6 -24q70 0 109.5 -36t39.5 -99q0 -77 -50 -119.5t-140 -42.5q-44 0 -80.5 8t-51.5 16l-14 7l29 104 q51 -23 110 -23q28 0 47 14t19 36q0 41 -45 41h-115l35 133q-199 42 -319.5 195.5t-120.5 379.5z" />
<glyph unicode="&#xe8;" horiz-adv-x="1155" d="M76 563q0 268 146 429t386 161q116 0 206.5 -35.5t145 -98.5t86 -149t31 -186t-21.5 -211h-707q6 -135 88 -211t223 -76q83 0 173.5 19.5t148.5 46.5v-213q-44 -26 -133 -46t-203 -20q-256 0 -412.5 162t-156.5 428zM336 1542h258l119 -235h-164zM346 641h490 q30 135 -32.5 218t-189.5 83q-120 0 -194 -83t-74 -218z" />
<glyph unicode="&#xe9;" horiz-adv-x="1155" d="M76 563q0 268 146 429t386 161q116 0 206.5 -35.5t145 -98.5t86 -149t31 -186t-21.5 -211h-707q6 -135 88 -211t223 -76q83 0 173.5 19.5t148.5 46.5v-213q-44 -26 -133 -46t-203 -20q-256 0 -412.5 162t-156.5 428zM346 641h490q30 135 -32.5 218t-189.5 83 q-120 0 -194 -83t-74 -218zM498 1307l116 235h260l-212 -235h-164z" />
<glyph unicode="&#xea;" horiz-adv-x="1155" d="M76 563q0 268 146 429t386 161q116 0 206.5 -35.5t145 -98.5t86 -149t31 -186t-21.5 -211h-707q6 -135 88 -211t223 -76q83 0 173.5 19.5t148.5 46.5v-213q-44 -26 -133 -46t-203 -20q-256 0 -412.5 162t-156.5 428zM344 1298l172 242h229l173 -242h-175l-112 119 l-113 -119h-174zM346 641h490q30 135 -32.5 218t-189.5 83q-120 0 -194 -83t-74 -218z" />
<glyph unicode="&#xeb;" horiz-adv-x="1155" d="M76 563q0 268 146 429t386 161q116 0 206.5 -35.5t145 -98.5t86 -149t31 -186t-21.5 -211h-707q6 -135 88 -211t223 -76q83 0 173.5 19.5t148.5 46.5v-213q-44 -26 -133 -46t-203 -20q-256 0 -412.5 162t-156.5 428zM305 1395q0 46 32 78t87 32q54 0 85.5 -32t31.5 -78 q0 -48 -31.5 -80.5t-85.5 -32.5q-55 0 -87 32.5t-32 80.5zM346 641h490q30 135 -32.5 218t-189.5 83q-120 0 -194 -83t-74 -218zM719 1395q0 46 32 78t87 32q53 0 84.5 -32t31.5 -78q0 -48 -31 -80.5t-85 -32.5q-55 0 -87 32.5t-32 80.5z" />
<glyph unicode="&#xec;" horiz-adv-x="546" d="M-20 1542h258l118 -235h-163zM139 0v1126h269v-1126h-269z" />
<glyph unicode="&#xed;" horiz-adv-x="546" d="M139 0v1126h269v-1126h-269zM141 1307l117 235h260l-213 -235h-164z" />
<glyph unicode="&#xee;" horiz-adv-x="546" d="M-12 1298l172 242h229l172 -242h-174l-113 119l-112 -119h-174zM139 0v1126h269v-1126h-269z" />
<glyph unicode="&#xef;" horiz-adv-x="546" d="M-51 1395q0 46 32 78t87 32q53 0 84.5 -32t31.5 -78q0 -48 -31 -80.5t-85 -32.5q-55 0 -87 32.5t-32 80.5zM139 0v1126h269v-1126h-269zM362 1395q0 46 32 78t87 32q54 0 85.5 -32t31.5 -78q0 -48 -31.5 -80.5t-85.5 -32.5q-55 0 -87 32.5t-32 80.5z" />
<glyph unicode="&#xf0;" horiz-adv-x="1236" d="M72 522q0 231 124 371.5t322 140.5q52 0 101.5 -12t85 -28t71 -43t54.5 -44.5t41 -46t26 -34.5l14 -21l-16 65q0 151 -56 254t-157 150l-80 -160l-96 55l67 136q-40 4 -61 4q-79 0 -166.5 -24.5t-150.5 -59.5v213q54 35 151.5 59.5t212.5 24.5q56 0 119 -13l61 125 l97 -55l-52 -102q182 -83 281.5 -296t99.5 -515q0 -320 -154 -506.5t-403 -186.5q-238 0 -387 149.5t-149 399.5zM344 500q0 -138 75 -222.5t197 -84.5q125 0 202 103.5t77 281.5q-4 9 -11 24t-33 53.5t-56.5 68t-82 53.5t-108.5 24q-117 0 -188.5 -82.5t-71.5 -218.5z" />
<glyph unicode="&#xf1;" horiz-adv-x="1214" d="M139 0v1126h219l37 -131q5 7 17 20t45 39t71.5 46.5t98 36.5t123.5 16q192 0 272 -95.5t80 -287.5v-770h-268v758q0 85 -40 132.5t-112 47.5q-49 0 -95.5 -14t-77 -34t-54 -40.5t-34.5 -34.5l-11 -14v-801h-271zM340 1343q9 25 11.5 32t11.5 30t14.5 31t16.5 25.5 t21.5 24t25.5 16t33.5 13t39.5 3.5q40 0 83 -22t77.5 -44t54.5 -22q29 0 44.5 18.5t27.5 54.5l94 -43q-30 -88 -52 -117q-43 -56 -120 -57q-40 0 -83 22t-77.5 44t-54.5 22q-29 0 -45.5 -19t-28.5 -55z" />
<glyph unicode="&#xf2;" horiz-adv-x="1259" d="M76 561q0 268 151 430t402 162t402 -162t151 -430q0 -267 -151 -427.5t-402 -160.5t-402 160.5t-151 427.5zM334 1542h258l119 -235h-164zM346 561q0 -173 77.5 -273t205.5 -100q127 0 204.5 100t77.5 273q0 176 -77 276.5t-205 100.5t-205.5 -100.5t-77.5 -276.5z" />
<glyph unicode="&#xf3;" horiz-adv-x="1259" d="M76 561q0 268 151 430t402 162t402 -162t151 -430q0 -267 -151 -427.5t-402 -160.5t-402 160.5t-151 427.5zM346 561q0 -173 77.5 -273t205.5 -100q127 0 204.5 100t77.5 273q0 176 -77 276.5t-205 100.5t-205.5 -100.5t-77.5 -276.5zM496 1307l116 235h260l-213 -235 h-163z" />
<glyph unicode="&#xf4;" horiz-adv-x="1259" d="M76 561q0 268 151 430t402 162t402 -162t151 -430q0 -267 -151 -427.5t-402 -160.5t-402 160.5t-151 427.5zM342 1298l172 242h229l172 -242h-174l-112 119l-113 -119h-174zM346 561q0 -173 77.5 -273t205.5 -100q127 0 204.5 100t77.5 273q0 176 -77 276.5t-205 100.5 t-205.5 -100.5t-77.5 -276.5z" />
<glyph unicode="&#xf5;" horiz-adv-x="1259" d="M76 561q0 268 151 430t402 162t402 -162t151 -430q0 -267 -151 -427.5t-402 -160.5t-402 160.5t-151 427.5zM346 561q0 -173 77.5 -273t205.5 -100q127 0 204.5 100t77.5 273q0 176 -77 276.5t-205 100.5t-205.5 -100.5t-77.5 -276.5zM352 1343q9 25 11.5 32t11.5 30 t14.5 31t16.5 25.5t21.5 24t25.5 16t33.5 13t39.5 3.5q40 0 83 -22t77.5 -44t54.5 -22q29 0 44.5 18.5t27.5 54.5l94 -43q-30 -88 -52 -117q-43 -56 -120 -57q-40 0 -83 22t-77.5 44t-54.5 22q-29 0 -45.5 -19t-28.5 -55z" />
<glyph unicode="&#xf6;" horiz-adv-x="1259" d="M76 561q0 268 151 430t402 162t402 -162t151 -430q0 -267 -151 -427.5t-402 -160.5t-402 160.5t-151 427.5zM303 1395q0 46 32 78t87 32q54 0 85.5 -32t31.5 -78q0 -48 -31.5 -80.5t-85.5 -32.5q-55 0 -87 32.5t-32 80.5zM346 561q0 -173 77.5 -273t205.5 -100 q127 0 204.5 100t77.5 273q0 176 -77 276.5t-205 100.5t-205.5 -100.5t-77.5 -276.5zM717 1395q0 46 32 78t87 32q53 0 84.5 -32t31.5 -78q0 -48 -31 -80.5t-85 -32.5q-55 0 -87 32.5t-32 80.5z" />
<glyph unicode="&#xf7;" horiz-adv-x="1064" d="M74 612v150h917v-150h-917zM397 342q0 58 39 97.5t96 39.5q58 0 99 -39.5t41 -97.5q0 -57 -41.5 -97t-98.5 -40t-96 40t-39 97zM397 1034q0 57 39 97t96 40t98.5 -40t41.5 -97t-41.5 -97t-98.5 -40t-96 40t-39 97z" />
<glyph unicode="&#xf8;" horiz-adv-x="1263" d="M-10 250l125 78q-37 104 -37 233q0 268 151 430t402 162q146 0 261.5 -57.5t188.5 -163.5l119 74l80 -132l-131 -81q35 -107 35 -232q0 -267 -151 -427.5t-402 -160.5q-144 0 -259 56t-188 159l-112 -69zM348 561q0 -43 6 -84l508 318q-37 69 -96.5 106t-134.5 37 q-128 0 -205.5 -100.5t-77.5 -276.5zM401 326q37 -66 97 -102t133 -36q127 0 204.5 100t77.5 273q0 28 -4 82z" />
<glyph unicode="&#xf9;" horiz-adv-x="1189" d="M113 356v770h268v-718q0 -215 168 -215q38 0 71 8t56 20t42 27.5t30.5 30.5t19.5 27t11 20l3 8v792h269v-1126h-224l-30 133q-3 -7 -9.5 -17.5t-33 -38t-59.5 -48.5t-92 -38.5t-128 -17.5q-178 0 -270 97.5t-92 285.5zM299 1542h258l119 -235h-164z" />
<glyph unicode="&#xfa;" horiz-adv-x="1189" d="M113 356v770h268v-718q0 -215 168 -215q38 0 71 8t56 20t42 27.5t30.5 30.5t19.5 27t11 20l3 8v792h269v-1126h-224l-30 133q-3 -7 -9.5 -17.5t-33 -38t-59.5 -48.5t-92 -38.5t-128 -17.5q-178 0 -270 97.5t-92 285.5zM461 1307l117 235h260l-213 -235h-164z" />
<glyph unicode="&#xfb;" horiz-adv-x="1189" d="M113 356v770h268v-718q0 -215 168 -215q38 0 71 8t56 20t42 27.5t30.5 30.5t19.5 27t11 20l3 8v792h269v-1126h-224l-30 133q-3 -7 -9.5 -17.5t-33 -38t-59.5 -48.5t-92 -38.5t-128 -17.5q-178 0 -270 97.5t-92 285.5zM307 1298l172 242h230l172 -242h-174l-113 119 l-113 -119h-174z" />
<glyph unicode="&#xfc;" horiz-adv-x="1189" d="M113 356v770h268v-718q0 -215 168 -215q38 0 71 8t56 20t42 27.5t30.5 30.5t19.5 27t11 20l3 8v792h269v-1126h-224l-30 133q-3 -7 -9.5 -17.5t-33 -38t-59.5 -48.5t-92 -38.5t-128 -17.5q-178 0 -270 97.5t-92 285.5zM268 1395q0 46 32 78t87 32q54 0 85.5 -32t31.5 -78 q0 -48 -31.5 -80.5t-85.5 -32.5q-55 0 -87 32.5t-32 80.5zM682 1395q0 46 32 78t87 32q54 0 85.5 -32t31.5 -78q0 -48 -31.5 -80.5t-85.5 -32.5q-55 0 -87 32.5t-32 80.5z" />
<glyph unicode="&#xfd;" horiz-adv-x="1196" d="M113 397v729h268v-712q0 -94 43 -146.5t119 -52.5q46 0 88 15t69.5 37t48 43.5t29.5 36.5l10 15v764h269v-997q0 -254 -139 -389t-398 -135q-101 0 -187 16.5t-136 40.5v219q51 -29 135 -49t184 -20q128 0 200 65t72 176l23 115q-5 -6 -14.5 -17t-41.5 -38t-67 -48 t-90.5 -38t-112.5 -17q-184 0 -278 101.5t-94 285.5zM459 1307l116 235h261l-213 -235h-164z" />
<glyph unicode="&#xfe;" d="M139 -369v1864h267v-381l-15 -127q4 7 12 18t37.5 39.5t64 50.5t92.5 40t122 18q219 0 338 -154.5t119 -435.5q0 -277 -128 -433.5t-346 -156.5q-64 0 -119 15.5t-88.5 37.5t-57.5 44t-34 38l-10 15l15 -127v-365h-269zM408 354q2 -7 6.5 -18t22.5 -39t41 -50t65 -39.5 t92 -17.5q118 0 191 99.5t73 273.5q0 176 -68 274.5t-184 98.5q-50 0 -93 -16.5t-68.5 -40t-44 -47t-25.5 -40.5l-8 -16v-422z" />
<glyph unicode="&#xff;" horiz-adv-x="1196" d="M113 397v729h268v-712q0 -94 43 -146.5t119 -52.5q46 0 88 15t69.5 37t48 43.5t29.5 36.5l10 15v764h269v-997q0 -254 -139 -389t-398 -135q-101 0 -187 16.5t-136 40.5v219q51 -29 135 -49t184 -20q128 0 200 65t72 176l23 115q-5 -6 -14.5 -17t-41.5 -38t-67 -48 t-90.5 -38t-112.5 -17q-184 0 -278 101.5t-94 285.5zM266 1395q0 46 32 78t87 32q54 0 85.5 -32t31.5 -78q0 -48 -31.5 -80.5t-85.5 -32.5q-55 0 -87 32.5t-32 80.5zM680 1395q0 46 32 78t87 32q53 0 84.5 -32t31.5 -78q0 -48 -31 -80.5t-85 -32.5q-55 0 -87 32.5t-32 80.5z " />
<glyph unicode="&#x152;" horiz-adv-x="1837" d="M76 692q0 132 34 244t95 194t144 139.5t181.5 86t206.5 28.5h981v-227h-565v-354h504v-211h-504v-365h571v-227h-987q-108 0 -206.5 28.5t-181.5 86t-144 139.5t-95 194t-34 244zM352 692q0 -223 101 -344t284 -121h148v930h-148q-183 0 -284 -121t-101 -344z" />
<glyph unicode="&#x153;" horiz-adv-x="1988" d="M76 563q0 268 151 429t402 161q131 0 237 -48t176 -136q69 88 173 136t229 48q130 0 224.5 -42.5t145 -110t74.5 -159t22.5 -182t-20.5 -186.5h-706q8 -137 89 -212t222 -75q83 0 173.5 19.5t148.5 46.5v-213q-44 -26 -133 -46t-203 -20q-136 0 -247 49.5t-185 141.5 q-71 -92 -178.5 -141.5t-241.5 -49.5q-250 0 -401.5 161.5t-151.5 428.5zM346 563q0 -175 77.5 -275t205.5 -100t205 100t77 275t-77 276t-205 101t-205.5 -101t-77.5 -276zM1182 641h489q8 45 9 87.5t-14 81t-40.5 67.5t-70.5 46t-105 17q-120 0 -194 -82t-74 -217z" />
<glyph unicode="&#x178;" horiz-adv-x="1177" d="M-10 1384h313l277 -532l10 -47l10 47l277 532h313l-465 -817v-567h-270v569zM260 1628q0 48 32 79.5t87 31.5q54 0 85.5 -32t31.5 -79t-31.5 -78.5t-85.5 -31.5q-55 0 -87 31.5t-32 78.5zM684 1628q0 48 32 79.5t87 31.5q54 0 85.5 -32t31.5 -79t-31.5 -78.5t-85.5 -31.5 q-55 0 -87 31.5t-32 78.5z" />
<glyph unicode="&#x2c6;" horiz-adv-x="647" d="M39 1298l172 242h229l172 -242h-174l-112 119l-113 -119h-174z" />
<glyph unicode="&#x2dc;" horiz-adv-x="698" d="M72 1343q9 25 11.5 32t11.5 30t14.5 31t16.5 25.5t21.5 24t25.5 16t33.5 13t39.5 3.5q40 0 83 -22t77.5 -44t54.5 -22q28 0 43.5 18t27.5 55l95 -43q-30 -88 -52 -117q-43 -56 -120 -57q-40 0 -83 22t-77.5 44t-54.5 22q-29 0 -45.5 -19t-28.5 -55z" />
<glyph unicode="&#x2000;" horiz-adv-x="904" />
<glyph unicode="&#x2001;" horiz-adv-x="1808" />
<glyph unicode="&#x2002;" horiz-adv-x="904" />
<glyph unicode="&#x2003;" horiz-adv-x="1808" />
<glyph unicode="&#x2004;" horiz-adv-x="602" />
<glyph unicode="&#x2005;" horiz-adv-x="452" />
<glyph unicode="&#x2006;" horiz-adv-x="301" />
<glyph unicode="&#x2007;" horiz-adv-x="301" />
<glyph unicode="&#x2008;" horiz-adv-x="226" />
<glyph unicode="&#x2009;" horiz-adv-x="361" />
<glyph unicode="&#x200a;" horiz-adv-x="100" />
<glyph unicode="&#x2010;" horiz-adv-x="811" d="M143 526v248h529v-248h-529z" />
<glyph unicode="&#x2011;" horiz-adv-x="811" d="M143 526v248h529v-248h-529z" />
<glyph unicode="&#x2012;" horiz-adv-x="811" d="M143 526v248h529v-248h-529z" />
<glyph unicode="&#x2013;" horiz-adv-x="952" d="M117 487v150h719v-150h-719z" />
<glyph unicode="&#x2014;" horiz-adv-x="1316" d="M117 487v150h1083v-150h-1083z" />
<glyph unicode="&#x2018;" horiz-adv-x="471" d="M135 1081v414h137l60 -414h-197z" />
<glyph unicode="&#x2019;" horiz-adv-x="471" d="M139 1495h197v-414h-137z" />
<glyph unicode="&#x201c;" horiz-adv-x="786" d="M135 1081v414h137l60 -414h-197zM449 1081v414h137l59 -414h-196z" />
<glyph unicode="&#x201d;" horiz-adv-x="786" d="M135 1495h197v-414h-137zM449 1495h196v-414h-137z" />
<glyph unicode="&#x2022;" horiz-adv-x="614" d="M84 567q0 95 63.5 160.5t159.5 65.5t160.5 -65.5t64.5 -160.5q0 -96 -64.5 -160.5t-160.5 -64.5t-159.5 64.5t-63.5 160.5z" />
<glyph unicode="&#x2026;" horiz-adv-x="1382" d="M270 119q0 61 42 103t102 42q38 0 73 -18q30 18 72 18q61 0 104.5 -42t43.5 -103q0 -60 -44 -103t-104 -43q-37 0 -72 21q-40 -21 -73 -21q-60 0 -102 43t-42 103zM948 119q0 61 42 103t102 42q61 0 104 -42t43 -103q0 -60 -43.5 -103t-103.5 -43t-102 43t-42 103z" />
<glyph unicode="&#x202f;" horiz-adv-x="361" />
<glyph unicode="&#x205f;" horiz-adv-x="452" />
<glyph unicode="&#x20ac;" horiz-adv-x="1148" d="M-68 745l43 140h113q51 243 225.5 384.5t429.5 141.5q60 0 114 -7t88.5 -17.5t60 -21t36.5 -17.5l11 -7v-233q-12 8 -34 19.5t-91.5 31t-141.5 19.5q-158 0 -263.5 -76t-147.5 -217h639l-43 -140h-623v-53v-55h590l-45 -139h-516q40 -140 145.5 -215.5t263.5 -75.5 q45 0 89.5 7t75 17.5t54.5 20.5t36 17l12 7v-233q-4 -3 -11.5 -7.5t-35.5 -16.5t-61 -21.5t-87.5 -17t-114.5 -7.5q-255 0 -429.5 141t-225.5 384h-154l46 139h90q-2 20 -2 55q0 37 2 53h-138z" />
<glyph unicode="&#x25fc;" horiz-adv-x="1126" d="M0 0v1126h1126v-1126h-1126z" />
<glyph unicode="&#xfb01;" horiz-adv-x="1253" d="M41 938v188h164v68q0 149 94 238.5t252 89.5q36 0 70.5 -6t54 -13t36 -13.5t17.5 -6.5v-203q-1 0 -9 4.5t-20.5 10t-28.5 11t-37.5 9.5t-43.5 4q-53 0 -85 -34t-32 -91v-68h639v-1126h-268v938h-371v-938h-270v938h-162zM829 1395q0 63 42.5 103t105.5 40t107 -40 t44 -103t-44 -103.5t-107 -40.5t-105.5 40.5t-42.5 103.5z" />
<glyph unicode="&#xfb02;" horiz-adv-x="1265" d="M41 938v188h164v68q0 149 94 238.5t252 89.5q36 0 70.5 -6t54 -13t36 -13.5t17.5 -6.5v-203q-1 0 -9 4.5t-20.5 10t-28.5 11t-37.5 9.5t-43.5 4q-53 0 -85 -34t-32 -91v-68h238v-188h-238v-938h-270v938h-162zM858 0v1495h268v-1495h-268z" />
<glyph unicode="&#xfb03;" horiz-adv-x="1892" d="M41 938v188h164v68q0 149 94 238.5t252 89.5q29 0 56.5 -4t47 -9.5t34 -11t24 -10t10.5 -4.5v-203l-5 2q-4 3 -10 6.5t-14.5 7.5t-19.5 8t-24 7.5t-28.5 5.5t-31.5 2q-56 0 -86.5 -31t-30.5 -88v-74h373v68q0 149 94 238.5t252 89.5q36 0 69.5 -6t53 -13t35 -13.5 t16.5 -6.5v-203l-12 7q-13 7 -27.5 13.5t-40.5 12.5t-53 6q-57 0 -88 -31t-31 -88v-74h641v-1126h-268v938h-373v-938h-270v938h-371v-938h-270v938h-162zM1470 1395q0 63 42.5 103t105.5 40t107 -40t44 -103t-44 -103.5t-107 -40.5t-105.5 40.5t-42.5 103.5z" />
<glyph unicode="&#xfb04;" horiz-adv-x="1900" d="M41 938v188h164v68q0 149 94 238.5t252 89.5q29 0 56.5 -4t47 -9.5t34 -11t24 -10t10.5 -4.5v-203l-5 2q-4 3 -10 6.5t-14.5 7.5t-19.5 8t-24 7.5t-28.5 5.5t-31.5 2q-56 0 -86.5 -31t-30.5 -88v-74h373v68q0 149 94 238.5t252 89.5q36 0 69.5 -6t53 -13t35 -13.5 t16.5 -6.5v-203l-12 7q-13 7 -27.5 13.5t-40.5 12.5t-53 6q-57 0 -88 -31t-31 -88v-74h238v-188h-238v-938h-270v938h-371v-938h-270v938h-162zM1493 0v1495h268v-1495h-268z" />
</font>
</defs>
</svg>
